<?xml version="1.0" standalone="no"?>
<!DOCTYPE svg PUBLIC "-//W3C//DTD SVG 20010904//EN"
 "http://www.w3.org/TR/2001/REC-SVG-20010904/DTD/svg10.dtd">
<svg version="1.0" xmlns="http://www.w3.org/2000/svg"
 width="640.000000pt" height="302.000000pt" viewBox="0 0 640.000000 302.000000"
 preserveAspectRatio="xMidYMid meet">

<g transform="translate(0.000000,302.000000) scale(0.100000,-0.100000)"
fill="#000000" stroke="none">
<path d="M2851 3001 c-173 -51 -279 -123 -561 -381 -214 -196 -384 -316 -579
-407 -111 -53 -187 -81 -456 -173 -110 -37 -283 -100 -385 -139 -250 -97 -416
-136 -657 -156 -46 -4 -83 -11 -83 -15 0 -10 122 -61 211 -88 217 -67 543 -53
884 38 467 124 921 352 1245 625 248 209 334 277 380 300 127 64 210 56 425
-40 80 -36 241 -98 359 -139 117 -41 242 -87 277 -101 75 -32 199 -102 199
-114 0 -4 -30 -13 -67 -20 -145 -26 -833 -176 -1113 -241 -709 -167 -1133
-294 -1705 -512 -159 -61 -407 -150 -550 -198 -285 -97 -359 -125 -444 -172
-69 -39 -214 -139 -208 -144 2 -2 128 29 280 71 153 41 339 88 416 105 76 17
215 51 307 76 189 50 619 143 1249 270 231 47 535 109 675 139 780 166 1464
274 2175 346 540 54 715 67 715 54 0 -28 -298 -400 -440 -549 -230 -241 -581
-502 -952 -710 -131 -72 -426 -216 -561 -272 -73 -30 -97 -49 -52 -40 17 3 53
8 80 12 264 34 567 133 875 289 437 220 757 440 1001 692 112 115 162 174 369
438 222 283 260 359 225 451 -24 64 -76 111 -132 120 -53 8 -310 -7 -693 -41
-151 -13 -336 -29 -410 -35 -158 -13 -307 -34 -395 -56 l-63 -16 -79 65 c-43
35 -121 92 -173 126 -113 74 -387 210 -554 276 -112 45 -542 198 -706 252
-103 34 -241 40 -329 14z"/>
<path d="M3371 1489 c9 -13 46 -69 82 -124 139 -212 182 -338 143 -414 -18
-33 -73 -84 -118 -107 -60 -31 -194 -72 -409 -124 -550 -133 -686 -186 -1005
-390 -147 -94 -446 -302 -440 -307 1 -2 185 89 407 201 704 357 803 392 1201
421 296 21 399 55 508 163 138 138 108 225 -179 515 -163 166 -224 219 -190
166z"/>
<path d="M3140 1313 c135 -89 181 -161 158 -252 -17 -67 -78 -124 -165 -151
-58 -19 -105 -23 -332 -31 -145 -5 -308 -16 -363 -24 -250 -37 -481 -157 -768
-398 -128 -107 -243 -212 -225 -204 18 8 343 196 463 269 154 93 290 161 377
187 79 25 301 45 380 36 86 -11 323 12 421 41 262 76 365 207 284 364 -29 56
-115 127 -215 177 -81 41 -88 33 -15 -14z"/>
</g>
</svg>
