<?xml version="1.0" standalone="no"?>
<!DOCTYPE svg PUBLIC "-//W3C//DTD SVG 20010904//EN"
 "http://www.w3.org/TR/2001/REC-SVG-20010904/DTD/svg10.dtd">
<svg version="1.0" xmlns="http://www.w3.org/2000/svg"
 width="594.000000pt" height="420.000000pt" viewBox="0 0 594.000000 420.000000"
 preserveAspectRatio="xMidYMid meet">

<g transform="translate(0.000000,420.000000) scale(0.100000,-0.100000)"
fill="#000000" stroke="none">
<path d="M2332 3264 c-33 -93 -56 -171 -51 -172 24 -9 39 12 64 87 15 45 30
81 34 81 3 0 22 -37 41 -82 l35 -83 48 -3 c26 -2 47 0 47 3 0 3 -9 24 -20 46
-18 35 -19 44 -9 79 7 22 15 40 19 40 4 0 23 -37 41 -82 l34 -83 48 -3 c26 -2
47 0 47 4 0 4 -35 81 -77 171 l-77 164 -31 -86 c-17 -48 -35 -86 -39 -86 -4 0
-27 39 -50 87 l-43 87 -61 -169z"/>
<path d="M2955 3358 c-15 -40 -40 -109 -55 -153 -15 -44 -31 -88 -35 -97 -5
-14 -2 -18 14 -18 15 0 25 9 32 30 10 28 15 30 59 30 43 0 49 -3 60 -30 12
-29 14 -30 80 -30 l68 0 33 90 c17 50 33 89 34 88 2 -2 20 -42 41 -90 l37 -88
49 0 48 0 -20 40 c-24 46 -25 66 -7 109 l14 32 38 -90 38 -91 48 0 48 0 -34
78 c-18 42 -52 114 -74 160 -23 46 -41 88 -41 95 0 22 -19 -16 -46 -95 -15
-43 -30 -78 -33 -78 -3 1 -24 39 -45 85 -22 47 -42 85 -46 85 -3 0 -30 -68
-60 -150 -29 -83 -56 -153 -60 -155 -4 -2 -24 32 -44 76 -21 45 -55 117 -76
161 l-37 79 -28 -73z m30 -124 c19 -47 20 -44 -16 -44 -24 0 -30 3 -25 16 3 9
9 27 12 40 8 32 11 31 29 -12z"/>
<path d="M2740 3245 l0 -155 45 0 45 0 0 155 0 155 -45 0 -45 0 0 -155z"/>
<path d="M3607 3394 c-4 -4 -7 -74 -7 -156 l0 -148 50 0 51 0 -3 153 -3 152
-40 3 c-23 2 -44 0 -48 -4z"/>
<path d="M2937 2909 c-78 -12 -149 -54 -259 -152 -231 -207 -285 -239 -543
-327 -77 -26 -186 -66 -243 -88 -103 -42 -232 -72 -303 -72 -113 0 44 -59 177
-67 297 -18 725 153 1011 402 46 41 109 86 138 101 67 32 102 28 225 -26 47
-20 123 -49 170 -64 95 -31 240 -95 240 -107 0 -4 -12 -10 -27 -13 -709 -145
-1094 -249 -1461 -392 -64 -26 -189 -71 -277 -101 -158 -54 -227 -85 -275
-124 l-25 -21 25 7 c527 132 655 162 1260 286 594 122 979 185 1340 219 118
11 239 22 268 25 l53 5 -32 -47 c-64 -93 -219 -269 -291 -329 -201 -168 -296
-229 -533 -346 -170 -85 -170 -91 5 -47 251 63 618 268 795 445 81 80 259 300
302 372 31 51 30 106 -2 137 -20 21 -34 25 -79 25 -107 0 -653 -50 -700 -64
l-48 -15 -61 50 c-86 70 -326 185 -537 258 -200 70 -246 80 -313 70z"/>
<path d="M3208 2089 c62 -97 94 -173 87 -202 -16 -61 -63 -83 -324 -148 -151
-37 -216 -59 -295 -98 -93 -45 -336 -197 -349 -217 -3 -5 109 48 250 118 281
140 325 154 513 169 158 13 214 31 267 84 79 78 60 123 -121 295 l-69 65 41
-66z"/>
<path d="M3072 2041 c69 -44 83 -82 52 -142 -25 -49 -68 -60 -264 -70 -201 -9
-262 -24 -381 -92 -61 -35 -189 -135 -254 -200 -15 -14 26 8 149 81 59 35 142
80 184 100 75 36 78 36 246 43 184 7 234 16 309 57 107 58 100 155 -15 221
-68 39 -86 40 -26 2z"/>
<path d="M4174 1590 c-22 -33 -25 -45 -17 -63 19 -42 104 -137 122 -137 21 0
74 74 69 97 -6 30 -28 25 -49 -12 -20 -33 -23 -35 -37 -21 -14 13 -12 19 11
50 15 19 27 39 27 45 0 19 -62 81 -81 81 -11 0 -30 -17 -45 -40z m64 -23 c8
-9 6 -19 -7 -36 -21 -28 -36 -14 -27 25 7 27 18 31 34 11z"/>
<path d="M4078 1473 c-42 -46 -42 -61 -2 -127 46 -76 63 -96 82 -96 24 0 72
60 72 89 0 43 -11 44 -37 5 -14 -19 -30 -33 -36 -31 -7 2 -25 23 -41 46 -25
37 -27 46 -17 68 7 15 17 23 26 20 22 -9 40 20 25 38 -19 22 -43 18 -72 -12z"/>
<path d="M3959 1347 c-51 -43 -51 -54 -3 -155 43 -92 53 -103 72 -79 7 8 -2
35 -29 92 -39 79 -39 79 -19 99 10 11 21 18 24 15 2 -2 20 -36 40 -76 26 -53
40 -71 51 -67 22 9 19 21 -25 112 -44 91 -62 101 -111 59z"/>
<path d="M2122 1279 c-23 -17 -42 -33 -42 -36 0 -2 14 -16 30 -30 24 -20 28
-28 19 -39 -17 -20 -50 -17 -56 5 -6 23 -32 36 -46 22 -15 -15 1 -45 32 -64
40 -23 51 -22 100 15 l44 32 -33 29 c-29 26 -31 31 -17 44 19 19 53 9 60 -17
6 -24 35 -26 44 -3 7 19 -50 73 -77 73 -9 0 -35 -14 -58 -31z"/>
<path d="M3678 1264 c-6 -5 1 -44 7 -44 19 0 32 15 28 31 -5 18 -23 25 -35 13z"/>
<path d="M3801 1221 c-17 -16 -31 -33 -31 -37 0 -23 53 -164 65 -174 12 -10
24 -7 60 14 38 23 45 32 45 57 l0 31 -42 -31 c-38 -28 -43 -30 -49 -14 -5 12
0 23 14 33 61 43 61 43 47 86 -7 21 -17 45 -23 52 -16 21 -53 13 -86 -17z m66
-36 c5 -15 -21 -44 -39 -45 -12 0 -9 35 4 48 16 16 27 15 35 -3z"/>
<path d="M2434 1120 c-100 -111 -116 -142 -82 -163 12 -8 21 -7 33 3 13 10 13
15 3 21 -16 11 -15 12 95 134 81 90 95 115 63 115 -7 0 -57 -49 -112 -110z"/>
<path d="M2225 1171 c-90 -86 -91 -97 -21 -133 22 -11 49 -27 58 -36 14 -12
20 -12 33 -2 12 10 13 16 3 27 -9 11 -2 23 40 59 63 55 68 83 18 113 -51 32
-75 27 -131 -28z m96 -1 c28 -15 24 -24 -26 -65 -32 -27 -50 -35 -65 -30 -29
9 -25 19 23 64 48 47 43 44 68 31z"/>
<path d="M2599 1164 c-13 -14 -31 -23 -41 -21 -19 5 -34 -23 -17 -33 7 -5 -11
-35 -50 -86 -34 -44 -61 -85 -61 -92 0 -7 12 -18 26 -24 20 -10 27 -9 34 2 5
8 5 19 0 25 -6 7 9 36 44 81 39 51 58 68 74 66 25 -4 40 17 21 29 -11 6 -9 14
8 38 19 25 20 30 7 35 -21 8 -17 9 -45 -20z"/>
<path d="M3715 1166 c-17 -12 -17 -17 9 -116 14 -57 28 -105 30 -107 8 -9 36
11 36 26 0 19 -46 201 -52 207 -3 2 -13 -2 -23 -10z"/>
<path d="M3598 1104 c-50 -27 -51 -39 -23 -210 5 -26 9 -31 26 -27 17 5 20 11
15 34 -3 16 -8 58 -12 94 -7 69 -7 69 43 66 27 -3 33 8 22 37 -10 25 -32 28
-71 6z"/>
<path d="M2581 986 c-30 -48 -49 -90 -45 -99 3 -9 19 -20 35 -26 33 -11 35
-18 14 -48 -17 -25 -50 -21 -66 8 -21 40 -69 7 -52 -36 6 -18 95 -47 117 -39
26 10 206 284 187 284 -5 0 -16 2 -23 5 -10 4 -31 -19 -63 -70 -46 -72 -64
-85 -93 -67 -9 6 0 28 37 84 39 61 46 78 34 82 -27 11 -31 7 -82 -78z"/>
<path d="M3434 1046 c-17 -8 -34 -21 -38 -31 -10 -26 -7 -141 4 -171 9 -24 14
-26 46 -21 44 7 84 32 84 52 0 18 -23 19 -49 3 -21 -13 -55 -4 -49 14 3 7 26
19 51 26 l47 13 0 49 c0 26 -3 55 -6 64 -7 19 -48 20 -90 2z m56 -56 c0 -11
-3 -20 -7 -20 -5 0 -18 -3 -30 -6 -26 -7 -32 13 -11 34 19 19 48 15 48 -8z"/>
<path d="M3272 1013 c-53 -5 -55 -10 -71 -168 -7 -66 -15 -135 -18 -152 -5
-30 -3 -33 21 -33 22 0 26 5 26 28 0 15 3 44 6 65 6 34 9 37 38 37 47 0 65 18
76 79 13 67 13 141 1 141 -5 0 -15 1 -23 3 -7 2 -32 2 -56 0z m43 -100 c-6
-57 -23 -83 -53 -83 -12 0 -13 12 -8 62 8 64 16 78 50 78 16 0 18 -6 11 -57z"/>
<path d="M2880 968 c-10 -17 -29 -58 -41 -90 -27 -74 -19 -88 57 -88 43 0 55
4 64 20 10 19 8 20 -40 20 -51 0 -57 4 -41 28 6 10 24 13 57 10 l48 -3 18 49
c18 46 18 50 2 67 -12 13 -31 19 -61 19 -38 0 -46 -4 -63 -32z m78 -16 c21
-14 3 -44 -22 -36 -28 9 -29 11 -23 29 7 16 25 19 45 7z"/>
<path d="M3144 963 c-7 -29 -15 -39 -33 -41 -22 -4 -23 -1 -17 32 6 32 4 36
-13 36 -21 0 -31 -22 -36 -78 -1 -15 -6 -38 -12 -52 -6 -14 -14 -40 -18 -57
-6 -28 -4 -33 13 -33 15 0 21 10 28 43 8 36 13 42 34 42 14 0 24 -4 24 -10 -1
-5 -4 -25 -7 -42 -6 -28 -3 -33 12 -33 19 0 31 34 31 85 0 12 6 35 14 51 7 16
16 44 20 62 4 26 2 32 -12 32 -13 0 -21 -11 -28 -37z"/>
</g>
</svg>
